<?xml version="1.0" encoding="UTF-8" standalone="no"?>
<!DOCTYPE svg PUBLIC "-//W3C//DTD SVG 1.1//EN" "http://www.w3.org/Graphics/SVG/1.1/DTD/svg11.dtd">
<svg width="100%" height="100%" viewBox="0 0 1535 2048" version="1.1" xmlns="http://www.w3.org/2000/svg" xmlns:xlink="http://www.w3.org/1999/xlink" xml:space="preserve" xmlns:serif="http://www.serif.com/" style="fill-rule:evenodd;clip-rule:evenodd;stroke-linecap:round;stroke-linejoin:round;stroke-miterlimit:1.5;">
    <path d="M971.984,526.812C935.585,524.662 881.361,518.274 880.714,518.386C878.287,518.803 875.805,518.838 873.343,518.879C868.415,518.961 863.48,519.021 858.559,518.755C831.228,517.276 831.489,516.327 804.016,515.656C803.673,515.647 628.794,511.935 628.61,511.937C623.806,511.982 619.034,513.24 614.479,514.765C603.226,518.531 578.161,528.935 580.884,545.406C583.618,561.94 587.777,578.223 590.333,594.784C598.077,644.959 600.278,695.572 609.396,745.605C621.869,814.052 634.979,882.382 647.824,950.761C650.256,963.713 656.241,975.119 660.423,987.479C669.48,1014.25 675.046,1042.2 683.773,1069.14C688.205,1082.83 690.814,1091.05 698.797,1102.87C718.414,1131.9 752.25,1141.54 782.942,1154.06C803.152,1162.3 802.552,1163.39 823.23,1170.79C827.652,1172.38 832.291,1173.3 836.723,1174.86C839.946,1175.99 856.553,1181.27 860.177,1181.88C864.613,1182.63 869.077,1183.31 873.434,1184.43C878.162,1185.65 882.608,1187.88 887.383,1188.9C897.908,1191.15 911.416,1191.7 922.108,1191.15C928.385,1190.83 936.434,1191.54 941.553,1186.73C945.407,1183.11 949.498,1174.9 950.91,1170.79C966.757,1124.71 981.972,1078.41 996.997,1032.06C1019.52,962.564 1017.97,962.279 1037.68,891.88C1050.54,845.973 1066.83,801.22 1079.43,755.248C1085.74,732.212 1091.09,709.84 1096.37,686.606C1101.7,663.177 1107.12,639.27 1110.82,615.445C1111.96,608.092 1112.3,592.05 1112.88,584.632C1113.78,572.954 1117.32,564.152 1107.1,554.084C1095.03,542.188 1072.94,541.629 1058.14,538.589C1053.53,537.643 1022.87,533.288 1021.01,533.11C1017.48,532.773 1013.91,532.932 1010.41,532.39C991.037,529.391 991.442,527.961 971.984,526.812Z" style="fill:none;stroke:black;stroke-width:1px;"/>
</svg>
