<?xml version="1.0" encoding="UTF-8" standalone="no"?>
<!-- Created with Inkscape (http://www.inkscape.org/) -->

<svg
   width="242.97607"
   height="310.57062"
   viewBox="0 0 242.97607 310.57062"
   version="1.1"
   id="svg5"
   xml:space="preserve"
   xmlns="http://www.w3.org/2000/svg"
   xmlns:svg="http://www.w3.org/2000/svg"><defs
     id="defs2" /><g
     id="layer1"
     transform="translate(-112.36452,-103.51667)"><path
       style="fill:#000000;stroke-width:0.182731"
       d="m 122.66918,185.21541 c -2.91604,-0.48872 -4.81237,-2.20876 -5.63371,-5.10998 -0.41881,-1.47939 -1.82891,-13.6583 -2.48504,-21.46307 -0.10983,-1.30653 -0.2798,-3.23891 -0.3777,-4.29418 -0.98246,-10.58965 -1.93728,-33.7901 -1.79384,-43.58667 0.11736,-8.01497 0.15313,-8.02887 16.41871,-6.37868 18.04557,1.83076 42.94595,6.39824 45.39855,8.32745 1.75628,1.38149 1.75118,3.44936 -0.0211,8.56362 -3.38922,9.78027 -4.53564,12.66409 -10.75096,27.04416 -11.51819,26.64909 -16.43273,33.91494 -24.28737,35.90743 -3.59909,0.91299 -13.40829,1.50265 -16.46755,0.98992 z"
       id="path1076" /></g></svg>
