<?xml version="1.0" encoding="UTF-8" standalone="no"?>
<!-- Created with Inkscape (http://www.inkscape.org/) -->

<svg
   version="1.1"
   id="svg39"
   width="1706.6667"
   height="1280"
   viewBox="0 0 1706.6667 1280"
   xmlns="http://www.w3.org/2000/svg"
   xmlns:svg="http://www.w3.org/2000/svg">
  <defs
     id="defs43" />
  <g
     id="g45">
    <path
       style="fill:none;fill-opacity:1;fill-rule:nonzero;stroke:#800000;stroke-opacity:1"
       d="m 998.56242,405.01764 c 0,0 157.85768,14.4327 222.80478,24.35518 15.801,2.41404 141.6209,26.15926 141.6209,26.15926 0,0 28.8887,5.87181 43.5013,14.97702 13.184,8.21499 14.2052,16.92999 9.7193,32.8313 -8.6867,30.79213 -9.9225,35.17971 -9.9225,35.17971 l -47.8083,120.87386 -48.4916,114.34068 -47.3705,102.81421 c 0,0 -14.9345,29.89565 -32.0734,55.15288 -17.1388,25.25722 -40.7467,43.40754 -40.7467,43.40754 l -12.3456,10.07725 c 0,0 -12.9116,7.96362 -31.8546,10.66975 -18.9429,2.70614 -67.6532,5.41222 -67.6532,5.41222 h -46.9063 c 0,0 -17.97,-1.1585 -25.4761,-8.07302 -6.37542,-5.87297 -9.81304,-7.89952 -16.91996,-21.69438 -7.79471,-15.12989 -17.822,-142.2587 -17.822,-142.2587 0,0 -14.23301,-196.85006 -14.65158,-206.03961 -1.16625,-25.60432 -2.70613,-142.41348 -2.70613,-142.41348 l -1.01148,-53.48478 c 0,0 -1.8682,-11.02462 10.66976,-19.09768 4.29029,-2.76247 35.44391,-3.18921 35.44391,-3.18921 z"
       id="path413" />
  </g>
</svg>
