<?xml version="1.0" encoding="UTF-8" standalone="no"?>
<!-- Created with Inkscape (http://www.inkscape.org/) -->

<svg
   width="63.587997mm"
   height="82.347923mm"
   viewBox="0 0 63.587997 82.347923"
   version="1.1"
   id="svg5"
   xml:space="preserve"
   xmlns="http://www.w3.org/2000/svg"
   xmlns:svg="http://www.w3.org/2000/svg"><defs
     id="defs2" /><g
     id="layer1"
     transform="translate(-112.18663,-103.25998)"><path
       style="fill:#000000;stroke-width:0.182731"
       d="m 121.89963,185.31281 c -2.88541,-0.77698 -4.54906,-2.55407 -5.24199,-5.59943 -0.38282,-1.68249 -1.72749,-13.62332 -2.29052,-20.3401 -0.10951,-1.30653 -0.27922,-3.2389 -0.37713,-4.29417 -1.00132,-10.79303 -1.92261,-33.49666 -1.79073,-44.1295 0.10574,-8.52497 0.11508,-8.5286 17.36295,-6.74993 3.60522,0.37178 10.39462,1.16164 10.8388,1.26095 0.201,0.0449 1.84558,0.2939 3.65461,0.55324 9.49068,1.36057 23.51111,4.09733 28.20161,5.50488 3.24011,0.97231 4.2043,3.27134 3.04698,7.26507 -3.2938,11.3662 -19.5915,48.83992 -24.47396,56.2736 -3.30798,5.0365 -7.40282,8.36714 -11.60418,9.43855 -3.73419,0.95228 -14.87328,1.47742 -17.32644,0.81684 z m 12.42305,-0.62424 c 11.59417,-1.19951 14.75968,-4.93405 26.56934,-31.34541 0.94372,-2.11054 1.79416,-4.0018 1.88987,-4.20281 0.72325,-1.51893 5.39969,-12.49573 6.57819,-15.44075 1.31616,-3.28894 4.7339,-12.70636 5.37503,-14.81063 0.88166,-2.89363 0.52459,-5.16497 -0.96789,-6.15682 -2.70792,-1.79959 -26.47213,-6.11842 -43.50777,-7.90697 -14.38228,-1.50997 -16.63205,-1.34782 -17.3538,1.25076 -0.70792,2.54879 0.39504,35.65337 1.63267,49.00317 0.0978,1.05527 0.26774,2.98764 0.37757,4.29417 0.49336,5.86858 1.86501,18.28808 2.20986,20.00903 0.5971,2.97971 2.30116,4.81268 5.09018,5.47521 1.27594,0.30311 8.5213,0.202 12.10675,-0.16895 z"
       id="path955" /></g></svg>
